<?xml version="1.0" encoding="UTF-8"?>
<!DOCTYPE svg PUBLIC "-//W3C//DTD SVG 1.1//EN" "http://www.w3.org/Graphics/SVG/1.1/DTD/svg11.dtd">
<svg xmlns="http://www.w3.org/2000/svg" version="1.1" width="360px" height="225px" style="shape-rendering:geometricPrecision; text-rendering:geometricPrecision; image-rendering:optimizeQuality; fill-rule:evenodd; clip-rule:evenodd" xmlns:xlink="http://www.w3.org/1999/xlink">
<g><path style="opacity:0.999" fill="#f6f6f7" d="M 109.5,42.5 C 108.833,42.5 108.167,42.5 107.5,42.5C 106.737,41.7321 105.737,41.2321 104.5,41C 111.441,36.7264 116.941,31.2264 121,24.5C 116.801,29.0343 112.301,33.201 107.5,37C 104.5,37.6667 101.5,37.6667 98.5,37C 97.4186,35.2894 97.752,33.7894 99.5,32.5C 102.929,28.7376 106.929,25.7376 111.5,23.5C 117.289,19.551 122.956,15.3843 128.5,11C 130.5,10.3333 132.5,10.3333 134.5,11C 136.957,12.5621 139.624,13.5621 142.5,14C 143.059,14.7247 143.392,15.5581 143.5,16.5C 136.623,24.9206 129.29,32.9206 121.5,40.5C 122.025,41.1924 122.692,41.6924 123.5,42C 118.845,42.4992 114.179,42.6658 109.5,42.5 Z"/></g>
<g><path style="opacity:1" fill="#f9f9f9" d="M 230.5,25.5 C 230.068,24.2905 229.401,23.2905 228.5,22.5C 228.193,19.7201 227.193,17.2201 225.5,15C 225.645,14.228 225.978,13.5613 226.5,13C 228.852,12.7599 230.852,11.9265 232.5,10.5C 234.575,10.3016 236.575,10.1349 238.5,10C 248.308,17.9747 257.642,26.4747 266.5,35.5C 263.725,38.0445 260.391,39.5445 256.5,40C 252.167,40.6667 247.833,40.6667 243.5,40C 239.626,35.7326 236.126,31.2326 233,26.5C 232.329,25.7476 231.496,25.4142 230.5,25.5 Z"/></g>
<g><path style="opacity:0.996" fill="#b7a2b1" d="M 232.5,10.5 C 230.852,11.9265 228.852,12.7599 226.5,13C 225.978,13.5613 225.645,14.228 225.5,15C 227.193,17.2201 228.193,19.7201 228.5,22.5C 227.292,21.7659 225.959,21.4326 224.5,21.5C 224.32,25.2155 224.654,28.8822 225.5,32.5C 227.22,35.2016 228.887,37.8682 230.5,40.5C 227.156,38.8248 224.99,36.1582 224,32.5C 222.223,30.2101 220.056,28.5434 217.5,27.5C 218.635,25.7868 220.302,25.1201 222.5,25.5C 222.353,20.7858 222.686,16.1191 223.5,11.5C 226.518,11.2962 229.518,10.9629 232.5,10.5 Z"/></g>
<g><path style="opacity:0.999" fill="#f5f6f5" d="M 196.5,52.5 C 195.5,52.5 194.5,52.5 193.5,52.5C 192.757,43.7088 191.257,35.0421 189,26.5C 189.417,34.8431 190.25,43.1764 191.5,51.5C 186.448,51.5498 181.448,51.0498 176.5,50C 173.966,49.4837 171.8,48.317 170,46.5C 169.51,47.7932 169.343,49.1266 169.5,50.5C 169.5,55.1667 169.5,59.8333 169.5,64.5C 169.5,68.5 169.5,72.5 169.5,76.5C 169.5,84.1667 169.5,91.8333 169.5,99.5C 168.507,107.65 168.174,115.983 168.5,124.5C 167.521,121.375 167.187,118.042 167.5,114.5C 167.5,102.833 167.5,91.1667 167.5,79.5C 168.331,68.0072 168.831,56.3405 169,44.5C 172.504,35.983 176.004,27.483 179.5,19C 183.039,18.7181 186.539,18.2181 190,17.5C 191.261,17.7591 192.261,18.4258 193,19.5C 197.512,29.5272 200.678,39.8605 202.5,50.5C 199.918,50.0254 197.918,50.6921 196.5,52.5 Z"/></g>
<g><path style="opacity:1" fill="#b1adae" d="M 241.5,19.5 C 241.897,18.475 242.563,18.3083 243.5,19C 248.167,23.6667 252.833,28.3333 257.5,33C 256.833,33.6667 256.167,33.6667 255.5,33C 250.965,28.2967 246.298,23.7967 241.5,19.5 Z"/></g>
<g><path style="opacity:1" fill="#f5f6f7" d="M 150.5,46.5 C 150.039,62.1633 149.705,77.83 149.5,93.5C 148.51,87.69 148.177,81.69 148.5,75.5C 148.5,68.1667 148.5,60.8333 148.5,53.5C 148.657,52.1266 148.49,50.7932 148,49.5C 145.441,51.6865 142.441,52.6865 139,52.5C 135.477,52.1629 131.977,51.6629 128.5,51C 127.594,49.3005 127.261,47.4672 127.5,45.5C 128.026,43.7697 129.026,42.4363 130.5,41.5C 131.552,41.6495 132.552,41.4828 133.5,41C 138.348,35.8152 142.848,30.3152 147,24.5C 151.193,18.2152 155.693,18.0486 160.5,24C 157.414,30.0852 153.914,35.9186 150,41.5C 149.36,43.265 149.527,44.9317 150.5,46.5 Z"/></g>
<g><path style="opacity:1" fill="#afaeae" d="M 133.5,18.5 C 135.028,18.5173 135.528,19.184 135,20.5C 130.291,25.0414 125.791,29.7081 121.5,34.5C 120.479,33.9984 120.312,33.3317 121,32.5C 125.768,28.2401 129.934,23.5734 133.5,18.5 Z"/></g>
<g><path style="opacity:0.996" fill="#b5b1b2" d="M 233.5,18.5 C 237.884,22.9057 242.051,27.5723 246,32.5C 246.667,33.5 246.667,34.5 246,35.5C 241.591,29.9372 237.424,24.2705 233.5,18.5 Z"/></g>
<g><path style="opacity:1" fill="#7f1582" d="M 228.5,22.5 C 229.401,23.2905 230.068,24.2905 230.5,25.5C 233.78,30.6202 237.28,35.6202 241,40.5C 241.827,44.5411 241.66,48.5411 240.5,52.5C 240.167,52.3333 239.833,52.1667 239.5,52C 237.018,47.6935 234.018,43.8601 230.5,40.5C 228.887,37.8682 227.22,35.2016 225.5,32.5C 224.654,28.8822 224.32,25.2155 224.5,21.5C 225.959,21.4326 227.292,21.7659 228.5,22.5 Z"/></g>
<g><path style="opacity:0.999" fill="#f5f5f5" d="M 210.5,19.5 C 212.19,21.5038 213.524,23.8371 214.5,26.5C 215.325,27.3857 216.325,27.719 217.5,27.5C 220.056,28.5434 222.223,30.2101 224,32.5C 224.99,36.1582 227.156,38.8248 230.5,40.5C 232.667,43.501 234.334,46.8343 235.5,50.5C 240.815,53.4421 241.815,57.4421 238.5,62.5C 237.833,62.5 237.167,62.5 236.5,62.5C 232.037,62.5769 227.704,61.9102 223.5,60.5C 223.073,56.1756 222.739,51.8422 222.5,47.5C 223.675,47.281 224.675,47.6143 225.5,48.5C 227.592,51.681 229.925,54.681 232.5,57.5C 232.833,57.1667 233.167,56.8333 233.5,56.5C 230.201,50.8826 226.201,45.8826 221.5,41.5C 220.189,38.8646 218.522,36.5313 216.5,34.5C 214.217,29.6021 212.217,24.6021 210.5,19.5 Z"/></g>
<g><path style="opacity:1" fill="#bcb9bc" d="M 210.5,19.5 C 212.217,24.6021 214.217,29.6021 216.5,34.5C 218.522,36.5313 220.189,38.8646 221.5,41.5C 221.167,43.5 220.833,45.5 220.5,47.5C 215.701,48.6565 210.701,48.6565 205.5,47.5C 204.883,47.3893 204.383,47.056 204,46.5C 203.506,48.1341 203.34,49.8008 203.5,51.5C 201.139,51.6741 198.806,52.0074 196.5,52.5C 197.918,50.6921 199.918,50.0254 202.5,50.5C 200.678,39.8605 197.512,29.5272 193,19.5C 192.261,18.4258 191.261,17.7591 190,17.5C 186.539,18.2181 183.039,18.7181 179.5,19C 176.004,27.483 172.504,35.983 169,44.5C 168.831,56.3405 168.331,68.0072 167.5,79.5C 167.5,68.8333 167.5,58.1667 167.5,47.5C 163.524,48.3307 159.524,48.4973 155.5,48C 154.354,47.3551 153.354,46.5217 152.5,45.5C 151.817,45.8627 151.15,46.1961 150.5,46.5C 149.527,44.9317 149.36,43.265 150,41.5C 153.914,35.9186 157.414,30.0852 160.5,24C 155.693,18.0486 151.193,18.2152 147,24.5C 142.848,30.3152 138.348,35.8152 133.5,41C 132.552,41.4828 131.552,41.6495 130.5,41.5C 135.86,35.2829 140.86,28.7829 145.5,22C 144.423,20.4574 143.089,20.4574 141.5,22C 136.667,28.1667 131.833,34.3333 127,40.5C 126.22,42.3869 126.387,44.0536 127.5,45.5C 127.261,47.4672 127.594,49.3005 128.5,51C 131.977,51.6629 135.477,52.1629 139,52.5C 142.441,52.6865 145.441,51.6865 148,49.5C 148.49,50.7932 148.657,52.1266 148.5,53.5C 144.906,54.4574 141.24,55.1241 137.5,55.5C 133.493,54.8273 129.493,54.1606 125.5,53.5C 125.806,56.3854 125.473,59.0521 124.5,61.5C 124.806,58.6146 124.473,55.9479 123.5,53.5C 123.5,50.1667 123.5,46.8333 123.5,43.5C 118.637,43.8195 113.97,43.4861 109.5,42.5C 114.179,42.6658 118.845,42.4992 123.5,42C 122.692,41.6924 122.025,41.1924 121.5,40.5C 129.29,32.9206 136.623,24.9206 143.5,16.5C 143.392,15.5581 143.059,14.7247 142.5,14C 139.624,13.5621 136.957,12.5621 134.5,11C 132.5,10.3333 130.5,10.3333 128.5,11C 122.956,15.3843 117.289,19.551 111.5,23.5C 117.02,17.4943 123.353,12.3276 130.5,8C 136.869,8.67218 143.203,9.83885 149.5,11.5C 149.433,14.766 151.099,16.266 154.5,16C 156.719,18.2196 159.219,20.0529 162,21.5C 163.667,18.8333 165.333,16.1667 167,13.5C 168.062,12.1007 169.395,11.1007 171,10.5C 176,12.2709 180.667,14.6042 185,17.5C 191.635,13.4234 198.801,11.5901 206.5,12C 208.494,14.1575 209.828,16.6575 210.5,19.5 Z"/></g>
<g><path style="opacity:1" fill="#f0f0f1" d="M 168.5,13.5 C 172.599,13.3666 176.266,14.5333 179.5,17C 178.667,17.8333 177.833,18.6667 177,19.5C 174.335,26.8217 171.668,34.1551 169,41.5C 168.167,43 167,44.1667 165.5,45C 161.129,45.6292 156.796,45.4625 152.5,44.5C 152.34,42.8008 152.506,41.1341 153,39.5C 158.43,30.971 163.596,22.3043 168.5,13.5 Z"/></g>
<g><path style="opacity:1" fill="#181819" d="M 130.5,41.5 C 129.026,42.4363 128.026,43.7697 127.5,45.5C 126.387,44.0536 126.22,42.3869 127,40.5C 131.833,34.3333 136.667,28.1667 141.5,22C 143.089,20.4574 144.423,20.4574 145.5,22C 140.86,28.7829 135.86,35.2829 130.5,41.5 Z"/></g>
<g><path style="opacity:1" fill="#f1f2f2" d="M 216.5,34.5 C 218.254,37.6517 219.087,40.985 219,44.5C 212.919,46.8057 207.919,45.4724 204,40.5C 199.383,32.642 196.383,24.3087 195,15.5C 197.917,13.6067 201.084,13.1067 204.5,14C 208.387,20.9462 212.387,27.7796 216.5,34.5 Z"/></g>
<g><path style="opacity:1" fill="#070707" d="M 107.5,42.5 C 108.167,42.5 108.833,42.5 109.5,42.5C 113.97,43.4861 118.637,43.8195 123.5,43.5C 123.5,46.8333 123.5,50.1667 123.5,53.5C 123.664,56.1873 123.497,58.854 123,61.5C 114.02,67.795 104.687,68.1284 95,62.5C 94.5003,54.8406 94.3336,47.1739 94.5,39.5C 98.8972,40.3008 103.231,41.3008 107.5,42.5 Z"/></g>
<g><path style="opacity:1" fill="#aba8aa" d="M 148.5,30.5 C 150.028,30.5173 150.528,31.184 150,32.5C 146.333,37.1667 142.667,41.8333 139,46.5C 138.685,45.0922 139.018,43.7589 140,42.5C 143.467,38.88 146.3,34.88 148.5,30.5 Z"/></g>
<g><path style="opacity:0.992" fill="#b8aabb" d="M 269.5,35.5 C 270.396,45.4679 270.729,55.4679 270.5,65.5C 269.5,65.5 268.5,65.5 267.5,65.5C 269.148,63.5441 269.815,61.2108 269.5,58.5C 261.261,60.7229 252.927,61.0562 244.5,59.5C 244.179,57.9519 243.179,57.2852 241.5,57.5C 241.5,59.1667 241.5,60.8333 241.5,62.5C 240.5,62.5 239.5,62.5 238.5,62.5C 241.815,57.4421 240.815,53.4421 235.5,50.5C 234.334,46.8343 232.667,43.501 230.5,40.5C 234.018,43.8601 237.018,47.6935 239.5,52C 239.833,52.1667 240.167,52.3333 240.5,52.5C 241.66,48.5411 241.827,44.5411 241,40.5C 237.28,35.6202 233.78,30.6202 230.5,25.5C 231.496,25.4142 232.329,25.7476 233,26.5C 236.126,31.2326 239.626,35.7326 243.5,40C 247.833,40.6667 252.167,40.6667 256.5,40C 260.391,39.5445 263.725,38.0445 266.5,35.5C 257.642,26.4747 248.308,17.9747 238.5,10C 236.575,10.1349 234.575,10.3016 232.5,10.5C 234.189,8.00027 236.522,7.16694 239.5,8C 248.539,16.3744 257.872,24.3744 267.5,32C 268.823,32.8159 269.489,33.9826 269.5,35.5 Z"/></g>
<g><path style="opacity:1" fill="#7e0981" d="M 262.5,40.5 C 264.5,40.5 266.5,40.5 268.5,40.5C 268.666,45.1785 268.499,49.8452 268,54.5C 266.509,56.0037 264.676,56.8371 262.5,57C 257.5,57.6667 252.5,57.6667 247.5,57C 246.667,56.1667 245.833,55.3333 245,54.5C 244.502,51.1832 244.335,47.8499 244.5,44.5C 248.804,43.8694 253.137,43.3694 257.5,43C 259.315,42.2432 260.981,41.4098 262.5,40.5 Z"/></g>
<g><path style="opacity:1" fill="#80177d" d="M 220.5,47.5 C 220.574,66.8388 220.908,86.1722 221.5,105.5C 220.281,95.672 219.281,85.672 218.5,75.5C 217.833,88.9939 217.167,102.327 216.5,115.5C 216.5,100.167 216.5,84.8333 216.5,69.5C 214.5,69.5 212.5,69.5 210.5,69.5C 211.156,85.1581 211.489,100.825 211.5,116.5C 212.833,116.5 214.167,116.5 215.5,116.5C 213.393,117.468 211.059,117.802 208.5,117.5C 208.334,123.176 208.501,128.843 209,134.5C 209.667,133.833 210.333,133.167 211,132.5C 212.355,134.503 213.188,136.336 213.5,138C 214.793,138.49 216.127,138.657 217.5,138.5C 214.316,139.784 211.15,139.451 208,137.5C 207.827,131.984 207.327,126.651 206.5,121.5C 206.5,120.167 206.5,118.833 206.5,117.5C 205.972,94.1701 205.638,70.8368 205.5,47.5C 210.701,48.6565 215.701,48.6565 220.5,47.5 Z"/></g>
<g><path style="opacity:1" fill="#b0b0b3" d="M 196.5,52.5 C 188.502,55.2482 180.502,54.9148 172.5,51.5C 171.791,50.596 170.791,50.2627 169.5,50.5C 169.343,49.1266 169.51,47.7932 170,46.5C 171.8,48.317 173.966,49.4837 176.5,50C 181.448,51.0498 186.448,51.5498 191.5,51.5C 190.25,43.1764 189.417,34.8431 189,26.5C 191.257,35.0421 192.757,43.7088 193.5,52.5C 194.5,52.5 195.5,52.5 196.5,52.5 Z"/></g>
<g><path style="opacity:0.999" fill="#060606" d="M 172.5,51.5 C 180.502,54.9148 188.502,55.2482 196.5,52.5C 198.806,52.0074 201.139,51.6741 203.5,51.5C 203.666,55.8461 203.499,60.1794 203,64.5C 192.957,70.1005 182.457,70.9339 171.5,67C 170.748,66.3292 170.414,65.4959 170.5,64.5C 169.903,59.706 170.57,55.3727 172.5,51.5 Z"/></g>
<g><path style="opacity:1" fill="#5d555d" d="M 169.5,50.5 C 170.791,50.2627 171.791,50.596 172.5,51.5C 170.57,55.3727 169.903,59.706 170.5,64.5C 170.167,64.5 169.833,64.5 169.5,64.5C 169.5,59.8333 169.5,55.1667 169.5,50.5 Z"/></g>
<g><path style="opacity:1" fill="#c2c6c4" d="M 203.5,51.5 C 204.496,65.3234 204.829,79.3234 204.5,93.5C 203.51,87.69 203.177,81.69 203.5,75.5C 192.798,78.0368 182.131,78.0368 171.5,75.5C 170.817,75.8627 170.15,76.1961 169.5,76.5C 169.5,72.5 169.5,68.5 169.5,64.5C 169.833,64.5 170.167,64.5 170.5,64.5C 170.414,65.4959 170.748,66.3292 171.5,67C 182.457,70.9339 192.957,70.1005 203,64.5C 203.499,60.1794 203.666,55.8461 203.5,51.5 Z"/></g>
<g><path style="opacity:0.999" fill="#161516" d="M 170.5,69.5 C 180.487,72.1648 190.487,72.1648 200.5,69.5C 201.5,69.8333 202.5,70.1667 203.5,70.5C 198.16,74.1641 192.16,75.8307 185.5,75.5C 180.621,75.739 175.955,74.9057 171.5,73C 170.663,71.9887 170.33,70.8221 170.5,69.5 Z"/></g>
<g><path style="opacity:0.999" fill="#0a0a0a" d="M 204.5,93.5 C 204.5,100.167 204.5,106.833 204.5,113.5C 200.156,114.558 195.823,115.724 191.5,117C 184.243,118.071 177.243,117.238 170.5,114.5C 169.506,109.544 169.173,104.544 169.5,99.5C 169.5,91.8333 169.5,84.1667 169.5,76.5C 170.15,76.1961 170.817,75.8627 171.5,75.5C 182.131,78.0368 192.798,78.0368 203.5,75.5C 203.177,81.69 203.51,87.69 204.5,93.5 Z"/></g>
<g><path style="opacity:1" fill="#800c7f" d="M 148.5,53.5 C 148.5,60.8333 148.5,68.1667 148.5,75.5C 147.66,95.0059 146.826,114.673 146,134.5C 144.934,137.563 142.767,139.063 139.5,139C 134.761,139.726 130.095,139.393 125.5,138C 124.107,136.829 123.273,135.329 123,133.5C 122.833,127.167 122.667,120.833 122.5,114.5C 123.269,96.8355 123.936,79.1688 124.5,61.5C 125.473,59.0521 125.806,56.3854 125.5,53.5C 129.493,54.1606 133.493,54.8273 137.5,55.5C 141.24,55.1241 144.906,54.4574 148.5,53.5 Z"/></g>
<g><path style="opacity:1" fill="#b696bd" d="M 136.5,58.5 C 138.017,58.5106 139.184,59.1772 140,60.5C 140.497,63.146 140.664,65.8127 140.5,68.5C 134.796,68.8536 132.963,66.187 135,60.5C 135.717,59.9558 136.217,59.2891 136.5,58.5 Z"/></g>
<g><path style="opacity:0.996" fill="#c4a2cd" d="M 216.5,115.5 C 216.5,116.167 216.167,116.5 215.5,116.5C 214.167,116.5 212.833,116.5 211.5,116.5C 211.489,100.825 211.156,85.1581 210.5,69.5C 212.5,69.5 214.5,69.5 216.5,69.5C 216.5,84.8333 216.5,100.167 216.5,115.5 Z"/></g>
<g><path style="opacity:0.996" fill="#834980" d="M 212.5,71.5 C 214.289,76.4068 215.122,81.7401 215,87.5C 215.832,96.1858 215.665,104.853 214.5,113.5C 213.229,99.5284 212.562,85.5284 212.5,71.5 Z"/></g>
<g><path style="opacity:0.996" fill="#b4b5b4" d="M 184.5,86.5 C 194.093,87.1057 197.26,92.1057 194,101.5C 193.5,103.333 192.333,104.5 190.5,105C 184.073,107.238 180.239,105.072 179,98.5C 178.312,93.3518 180.145,89.3518 184.5,86.5 Z"/></g>
<g><path style="opacity:1" fill="#0b0a0b" d="M 183.5,89.5 C 190.825,88.9924 193.658,92.3258 192,99.5C 189.177,104.395 185.843,104.729 182,100.5C 181.112,96.5979 181.612,92.9312 183.5,89.5 Z"/></g>
<g><path style="opacity:1" fill="#81117f" d="M 167.5,79.5 C 167.5,91.1667 167.5,102.833 167.5,114.5C 166.814,122.038 165.981,129.704 165,137.5C 159.639,140.105 154.306,140.105 149,137.5C 148.628,122.83 148.795,108.163 149.5,93.5C 149.705,77.83 150.039,62.1633 150.5,46.5C 151.15,46.1961 151.817,45.8627 152.5,45.5C 153.354,46.5217 154.354,47.3551 155.5,48C 159.524,48.4973 163.524,48.3307 167.5,47.5C 167.5,58.1667 167.5,68.8333 167.5,79.5 Z"/></g>
<g><path style="opacity:1" fill="#ad78a9" d="M 155.5,70.5 C 155.56,69.9569 155.893,69.6236 156.5,69.5C 157.815,74.9864 157.815,80.3197 156.5,85.5C 156.821,80.3054 156.487,75.3054 155.5,70.5 Z"/></g>
<g><path style="opacity:1" fill="#d1cfe1" d="M 155.5,70.5 C 156.487,75.3054 156.821,80.3054 156.5,85.5C 156.943,94.6079 156.443,103.608 155,112.5C 154.375,98.4886 154.542,84.4886 155.5,70.5 Z"/></g>
<g><path style="opacity:1" fill="#cdc6ce" d="M 269.5,35.5 C 270.674,36.5137 271.34,37.847 271.5,39.5C 271.491,70.8436 271.658,102.177 272,133.5C 271.617,134.056 271.117,134.389 270.5,134.5C 270.099,138.07 268.099,140.236 264.5,141C 259.05,141.254 253.717,141.421 248.5,141.5C 247.391,141.443 246.391,141.11 245.5,140.5C 239.003,141.756 232.503,141.756 226,140.5C 218.629,142.7 211.129,143.033 203.5,141.5C 203.733,139.938 204.4,138.605 205.5,137.5C 205.5,133.5 205.5,129.5 205.5,125.5C 205.194,122.615 205.527,119.948 206.5,117.5C 206.5,118.833 206.5,120.167 206.5,121.5C 206.334,127.176 206.501,132.843 207,138.5C 210.375,139.87 213.875,140.87 217.5,141.5C 219.375,140.591 220.708,139.257 221.5,137.5C 221.5,126.833 221.5,116.167 221.5,105.5C 220.908,86.1722 220.574,66.8388 220.5,47.5C 220.833,45.5 221.167,43.5 221.5,41.5C 226.201,45.8826 230.201,50.8826 233.5,56.5C 233.167,56.8333 232.833,57.1667 232.5,57.5C 229.925,54.681 227.592,51.681 225.5,48.5C 224.675,47.6143 223.675,47.281 222.5,47.5C 222.739,51.8422 223.073,56.1756 223.5,60.5C 227.704,61.9102 232.037,62.5769 236.5,62.5C 232.03,63.4861 227.363,63.8195 222.5,63.5C 222.944,78.1636 223.278,92.8302 223.5,107.5C 223.077,117.58 223.577,127.58 225,137.5C 225.671,138.252 226.504,138.586 227.5,138.5C 233.299,140.208 238.799,139.541 244,136.5C 244.828,119.662 244.662,102.995 243.5,86.5C 243.938,78.3501 243.271,70.3501 241.5,62.5C 241.5,60.8333 241.5,59.1667 241.5,57.5C 243.179,57.2852 244.179,57.9519 244.5,59.5C 244.771,66.4255 248.437,69.4255 255.5,68.5C 259.597,67.8092 263.597,66.8092 267.5,65.5C 268.5,65.5 269.5,65.5 270.5,65.5C 270.729,55.4679 270.396,45.4679 269.5,35.5 Z"/></g>
<g><path style="opacity:0.992" fill="#b3a3b6" d="M 269.5,86.5 C 270.496,102.325 270.83,118.325 270.5,134.5C 270.167,134.5 269.833,134.5 269.5,134.5C 269.5,128.5 269.5,122.5 269.5,116.5C 262.856,117.443 256.189,117.609 249.5,117C 248.692,116.692 248.025,116.192 247.5,115.5C 253.718,115.844 260.051,115.344 266.5,114C 268.852,113.424 269.852,111.924 269.5,109.5C 269.36,107.97 268.693,106.97 267.5,106.5C 270.258,105.033 269.925,104.367 266.5,104.5C 267.209,103.596 268.209,103.263 269.5,103.5C 269.5,97.8333 269.5,92.1667 269.5,86.5 Z"/></g>
<g><path style="opacity:1" fill="#801280" d="M 269.5,86.5 C 269.5,92.1667 269.5,97.8333 269.5,103.5C 268.209,103.263 267.209,103.596 266.5,104.5C 259.764,107.425 253.264,107.092 247,103.5C 246.69,92.15 246.19,80.8166 245.5,69.5C 249.202,69.421 252.868,69.7543 256.5,70.5C 260.887,69.6529 265.22,68.6529 269.5,67.5C 269.5,73.8333 269.5,80.1667 269.5,86.5 Z"/></g>
<g><path style="opacity:1" fill="#c5b5cd" d="M 255.5,78.5 C 259.17,78.3266 261.67,79.9933 263,83.5C 263.667,87.1667 263.667,90.8333 263,94.5C 260.833,97.2868 257.999,98.1201 254.5,97C 252.49,92.3911 251.99,87.5577 253,82.5C 253.662,81.0161 254.496,79.6828 255.5,78.5 Z"/></g>
<g><path style="opacity:1" fill="#7e0d7e" d="M 256.5,81.5 C 260.792,81.8086 262.459,84.1419 261.5,88.5C 262.185,93.9912 260.019,95.9912 255,94.5C 253.978,89.8711 254.478,85.5377 256.5,81.5 Z"/></g>
<g><path style="opacity:0.999" fill="#050506" d="M 236.5,62.5 C 237.167,62.5 237.833,62.5 238.5,62.5C 239.5,62.5 240.5,62.5 241.5,62.5C 243.271,70.3501 243.938,78.3501 243.5,86.5C 243.667,102.837 243.5,119.17 243,135.5C 237.136,138.134 231.303,138.134 225.5,135.5C 224.884,126.037 224.217,116.703 223.5,107.5C 223.278,92.8302 222.944,78.1636 222.5,63.5C 227.363,63.8195 232.03,63.4861 236.5,62.5 Z"/></g>
<g><path style="opacity:0.996" fill="#9aa09e" d="M 231.5,79.5 C 236.213,79.4676 237.713,81.8009 236,86.5C 232.323,89.5188 230.156,88.5188 229.5,83.5C 229.752,81.9271 230.418,80.5938 231.5,79.5 Z"/></g>
<g><path style="opacity:1" fill="#821983" d="M 267.5,65.5 C 263.597,66.8092 259.597,67.8092 255.5,68.5C 248.437,69.4255 244.771,66.4255 244.5,59.5C 252.927,61.0562 261.261,60.7229 269.5,58.5C 269.815,61.2108 269.148,63.5441 267.5,65.5 Z"/></g>
<g><path style="opacity:1" fill="#c7bcca" d="M 162.5,79.5 C 163.912,90.0518 163.745,100.718 162,111.5C 160.912,109.712 160.412,107.712 160.5,105.5C 161.063,96.7969 161.729,88.1302 162.5,79.5 Z"/></g>
<g><path style="opacity:0.05" fill="#f9f9f9" d="M 271.5,39.5 C 272.261,43.1817 272.928,47.015 273.5,51C 273.032,65.1758 272.698,79.3425 272.5,93.5C 274.227,107.735 274.727,122.068 274,136.5C 266.531,143.569 258.031,145.235 248.5,141.5C 253.717,141.421 259.05,141.254 264.5,141C 268.099,140.236 270.099,138.07 270.5,134.5C 271.117,134.389 271.617,134.056 272,133.5C 271.658,102.177 271.491,70.8436 271.5,39.5 Z"/></g>
<g><path style="opacity:0.996" fill="#d9d1e8" d="M 205.5,47.5 C 205.638,70.8368 205.972,94.1701 206.5,117.5C 205.527,119.948 205.194,122.615 205.5,125.5C 204.662,125.158 204.328,124.492 204.5,123.5C 204.5,122.167 204.5,120.833 204.5,119.5C 204.5,118.5 204.5,117.5 204.5,116.5C 204.5,115.5 204.5,114.5 204.5,113.5C 204.5,106.833 204.5,100.167 204.5,93.5C 204.829,79.3234 204.496,65.3234 203.5,51.5C 203.34,49.8008 203.506,48.1341 204,46.5C 204.383,47.056 204.883,47.3893 205.5,47.5 Z"/></g>
<g><path style="opacity:0.999" fill="#141414" d="M 204.5,116.5 C 204.5,117.5 204.5,118.5 204.5,119.5C 193.39,124.216 182.057,124.716 170.5,121C 169.663,119.989 169.33,118.822 169.5,117.5C 181.282,120.382 192.949,120.049 204.5,116.5 Z"/></g>
<g><path style="opacity:0.998" fill="#7e0182" d="M 221.5,105.5 C 221.5,116.167 221.5,126.833 221.5,137.5C 220.167,137.833 218.833,138.167 217.5,138.5C 216.127,138.657 214.793,138.49 213.5,138C 213.188,136.336 212.355,134.503 211,132.5C 210.333,133.167 209.667,133.833 209,134.5C 208.501,128.843 208.334,123.176 208.5,117.5C 211.059,117.802 213.393,117.468 215.5,116.5C 216.167,116.5 216.5,116.167 216.5,115.5C 217.167,102.327 217.833,88.9939 218.5,75.5C 219.281,85.672 220.281,95.672 221.5,105.5 Z"/></g>
<g><path style="opacity:1" fill="#821182" d="M 267.5,106.5 C 268.693,106.97 269.36,107.97 269.5,109.5C 269.852,111.924 268.852,113.424 266.5,114C 260.051,115.344 253.718,115.844 247.5,115.5C 248.025,116.192 248.692,116.692 249.5,117C 256.189,117.609 262.856,117.443 269.5,116.5C 269.5,122.5 269.5,128.5 269.5,134.5C 264.914,138.455 259.581,140.121 253.5,139.5C 251.481,138.067 249.314,136.733 247,135.5C 246.5,126.173 246.334,116.839 246.5,107.5C 253.61,109.055 260.61,108.722 267.5,106.5 Z"/></g>
<g><path style="opacity:1" fill="#969b99" d="M 232.5,113.5 C 234.144,113.286 235.644,113.62 237,114.5C 237.667,116.833 237.667,119.167 237,121.5C 235.688,123.658 234.022,123.991 232,122.5C 231.264,119.408 231.431,116.408 232.5,113.5 Z"/></g>
<g><path style="opacity:1" fill="#b1b3b1" d="M 169.5,99.5 C 169.173,104.544 169.506,109.544 170.5,114.5C 177.243,117.238 184.243,118.071 191.5,117C 195.823,115.724 200.156,114.558 204.5,113.5C 204.5,114.5 204.5,115.5 204.5,116.5C 192.949,120.049 181.282,120.382 169.5,117.5C 169.33,118.822 169.663,119.989 170.5,121C 182.057,124.716 193.39,124.216 204.5,119.5C 204.5,120.833 204.5,122.167 204.5,123.5C 192.568,126.967 180.568,127.3 168.5,124.5C 168.174,115.983 168.507,107.65 169.5,99.5 Z"/></g>
<g><path style="opacity:0.999" fill="#070607" d="M 204.5,123.5 C 204.328,124.492 204.662,125.158 205.5,125.5C 205.5,129.5 205.5,133.5 205.5,137.5C 193.284,141.117 180.95,141.45 168.5,138.5C 168.5,133.833 168.5,129.167 168.5,124.5C 180.568,127.3 192.568,126.967 204.5,123.5 Z"/></g>
<g><path style="opacity:0.996" fill="#837f86" d="M 223.5,107.5 C 224.217,116.703 224.884,126.037 225.5,135.5C 226.167,136.5 226.833,137.5 227.5,138.5C 226.504,138.586 225.671,138.252 225,137.5C 223.577,127.58 223.077,117.58 223.5,107.5 Z"/></g>
<g><path style="opacity:0.996" fill="#b29aad" d="M 206.5,121.5 C 207.327,126.651 207.827,131.984 208,137.5C 211.15,139.451 214.316,139.784 217.5,138.5C 218.833,138.167 220.167,137.833 221.5,137.5C 220.708,139.257 219.375,140.591 217.5,141.5C 213.875,140.87 210.375,139.87 207,138.5C 206.501,132.843 206.334,127.176 206.5,121.5 Z"/></g>
<g><path style="opacity:0.996" fill="#3d3838" d="M 243.5,86.5 C 244.662,102.995 244.828,119.662 244,136.5C 238.799,139.541 233.299,140.208 227.5,138.5C 226.833,137.5 226.167,136.5 225.5,135.5C 231.303,138.134 237.136,138.134 243,135.5C 243.5,119.17 243.667,102.837 243.5,86.5 Z"/></g>
<g><path style="opacity:0.561" fill="#b899b5" d="M 269.5,134.5 C 268.647,137.518 266.647,139.351 263.5,140C 259.973,140.808 256.64,140.641 253.5,139.5C 259.581,140.121 264.914,138.455 269.5,134.5 Z"/></g>
<g><path style="opacity:0.153" fill="#c7c6cb" d="M 107.5,42.5 C 103.231,41.3008 98.8972,40.3008 94.5,39.5C 94.3336,47.1739 94.5003,54.8406 95,62.5C 104.687,68.1284 114.02,67.795 123,61.5C 123.497,58.854 123.664,56.1873 123.5,53.5C 124.473,55.9479 124.806,58.6146 124.5,61.5C 123.936,79.1688 123.269,96.8355 122.5,114.5C 122.667,120.833 122.833,127.167 123,133.5C 123.273,135.329 124.107,136.829 125.5,138C 130.095,139.393 134.761,139.726 139.5,139C 142.767,139.063 144.934,137.563 146,134.5C 146.826,114.673 147.66,95.0059 148.5,75.5C 148.177,81.69 148.51,87.69 149.5,93.5C 148.795,108.163 148.628,122.83 149,137.5C 154.306,140.105 159.639,140.105 165,137.5C 165.981,129.704 166.814,122.038 167.5,114.5C 167.187,118.042 167.521,121.375 168.5,124.5C 168.5,129.167 168.5,133.833 168.5,138.5C 180.95,141.45 193.284,141.117 205.5,137.5C 204.4,138.605 203.733,139.938 203.5,141.5C 197.881,142.492 192.214,143.158 186.5,143.5C 174.016,141.715 161.516,141.048 149,141.5C 145.927,141.523 143.26,142.523 141,144.5C 137.255,143.703 133.421,143.203 129.5,143C 126.154,139.828 122.154,138.328 117.5,138.5C 119.081,136.858 119.747,134.858 119.5,132.5C 120.388,129.946 120.721,127.279 120.5,124.5C 111.91,127.471 103.576,127.138 95.5,123.5C 96.209,122.596 97.209,122.263 98.5,122.5C 105.168,123.78 111.835,123.613 118.5,122C 120.25,120.246 120.917,118.079 120.5,115.5C 112.019,117.141 103.686,116.808 95.5,114.5C 93.9689,113.075 94.3023,112.409 96.5,112.5C 104.33,115.481 111.997,115.147 119.5,111.5C 121.3,99.9184 121.966,88.2518 121.5,76.5C 114.111,77.6736 106.778,77.6736 99.5,76.5C 98.4937,75.6043 98.4937,74.9377 99.5,74.5C 104.796,75.5095 110.129,75.6761 115.5,75C 119.869,74.1945 122.203,71.6945 122.5,67.5C 113.076,69.077 103.742,68.7437 94.5,66.5C 93.9093,69.6753 94.9093,72.0087 97.5,73.5C 96.0813,74.4511 94.4147,74.7845 92.5,74.5C 92.3334,94.8361 92.5,115.169 93,135.5C 95.2607,137.08 97.4273,138.746 99.5,140.5C 98.8333,140.5 98.1667,140.5 97.5,140.5C 93.3942,139.394 91.0609,136.727 90.5,132.5C 91.6183,110.995 91.6183,89.4949 90.5,68C 91.0907,57.8524 91.924,47.6857 93,37.5C 94.1585,34.5066 96.3252,32.8399 99.5,32.5C 97.752,33.7894 97.4186,35.2894 98.5,37C 101.5,37.6667 104.5,37.6667 107.5,37C 112.301,33.201 116.801,29.0343 121,24.5C 116.941,31.2264 111.441,36.7264 104.5,41C 105.737,41.2321 106.737,41.7321 107.5,42.5 Z"/></g>
<g><path style="opacity:0.999" fill="#0c0b0c" d="M 95.5,123.5 C 103.576,127.138 111.91,127.471 120.5,124.5C 120.721,127.279 120.388,129.946 119.5,132.5C 118.442,135.397 116.442,137.564 113.5,139C 107.456,140.195 101.789,139.362 96.5,136.5C 93.2247,132.081 92.8914,127.748 95.5,123.5 Z"/></g>
<g><path style="opacity:1" fill="#bda9c7" d="M 133.5,118.5 C 138.151,119.24 139.651,121.906 138,126.5C 134.182,129.498 132.016,128.498 131.5,123.5C 131.437,121.486 132.103,119.819 133.5,118.5 Z"/></g>
<g><path style="opacity:0.875" fill="#949396" d="M 97.5,73.5 C 98.4916,73.3284 99.1583,73.6618 99.5,74.5C 98.4937,74.9377 98.4937,75.6043 99.5,76.5C 97.8828,75.962 96.2161,75.6287 94.5,75.5C 93.8845,88.0832 94.5511,100.416 96.5,112.5C 94.3023,112.409 93.9689,113.075 95.5,114.5C 93.6921,115.918 93.0254,117.918 93.5,120.5C 95.5529,120.402 97.2196,121.069 98.5,122.5C 97.209,122.263 96.209,122.596 95.5,123.5C 92.8914,127.748 93.2247,132.081 96.5,136.5C 101.789,139.362 107.456,140.195 113.5,139C 116.442,137.564 118.442,135.397 119.5,132.5C 119.747,134.858 119.081,136.858 117.5,138.5C 117.082,139.222 116.416,139.722 115.5,140C 110.177,140.499 104.844,140.666 99.5,140.5C 97.4273,138.746 95.2607,137.08 93,135.5C 92.5,115.169 92.3334,94.8361 92.5,74.5C 94.4147,74.7845 96.0813,74.4511 97.5,73.5 Z"/></g>
<g><path style="opacity:1" fill="#0d0c0d" d="M 95.5,114.5 C 103.686,116.808 112.019,117.141 120.5,115.5C 120.917,118.079 120.25,120.246 118.5,122C 111.835,123.613 105.168,123.78 98.5,122.5C 97.2196,121.069 95.5529,120.402 93.5,120.5C 93.0254,117.918 93.6921,115.918 95.5,114.5 Z"/></g>
<g><path style="opacity:1" fill="#c3bec7" d="M 132.5,79.5 C 137.104,78.3786 139.937,80.0453 141,84.5C 141.774,91.2236 141.441,97.8903 140,104.5C 137.778,108.07 135.111,108.403 132,105.5C 128.518,96.6974 128.685,88.0307 132.5,79.5 Z"/></g>
<g><path style="opacity:1" fill="#82137d" d="M 134.5,81.5 C 135.822,81.33 136.989,81.6634 138,82.5C 139.527,88.4149 139.861,94.4149 139,100.5C 137.899,104.6 135.899,105.267 133,102.5C 130.655,95.1505 131.155,88.1505 134.5,81.5 Z"/></g>
<g><path style="opacity:0.999" fill="#0c0b0c" d="M 99.5,76.5 C 106.778,77.6736 114.111,77.6736 121.5,76.5C 121.966,88.2518 121.3,99.9184 119.5,111.5C 111.997,115.147 104.33,115.481 96.5,112.5C 94.5511,100.416 93.8845,88.0832 94.5,75.5C 96.2161,75.6287 97.8828,75.962 99.5,76.5 Z"/></g>
<g><path style="opacity:1" fill="#c4c7c6" d="M 103.5,87.5 C 113.107,87.2972 116.607,91.9639 114,101.5C 109.155,107.079 104.822,106.746 101,100.5C 99.8423,95.6935 100.676,91.3601 103.5,87.5 Z"/></g>
<g><path style="opacity:1" fill="#0e0d0d" d="M 104.5,89.5 C 111.314,89.49 113.814,92.8233 112,99.5C 109,104.833 106,104.833 103,99.5C 102.153,95.9277 102.653,92.5943 104.5,89.5 Z"/></g>
<g><path style="opacity:1" fill="#0d0c0c" d="M 99.5,74.5 C 99.1583,73.6618 98.4916,73.3284 97.5,73.5C 94.9093,72.0087 93.9093,69.6753 94.5,66.5C 103.742,68.7437 113.076,69.077 122.5,67.5C 122.203,71.6945 119.869,74.1945 115.5,75C 110.129,75.6761 104.796,75.5095 99.5,74.5 Z"/></g>
<g><path style="opacity:0.041" fill="#f7f8f8" d="M 117.5,138.5 C 122.154,138.328 126.154,139.828 129.5,143C 133.421,143.203 137.255,143.703 141,144.5C 143.26,142.523 145.927,141.523 149,141.5C 161.516,141.048 174.016,141.715 186.5,143.5C 192.214,143.158 197.881,142.492 203.5,141.5C 211.129,143.033 218.629,142.7 226,140.5C 232.503,141.756 239.003,141.756 245.5,140.5C 243.852,141.927 241.852,142.76 239.5,143C 234.971,143.679 230.471,143.513 226,142.5C 223.149,143.088 220.315,143.755 217.5,144.5C 202.185,144.528 186.852,144.194 171.5,143.5C 167.522,143.39 163.688,144.057 160,145.5C 150.528,144.877 141.028,144.711 131.5,145C 127.793,143.598 124.126,142.098 120.5,140.5C 112.686,144.383 105.02,144.383 97.5,140.5C 98.1667,140.5 98.8333,140.5 99.5,140.5C 104.844,140.666 110.177,140.499 115.5,140C 116.416,139.722 117.082,139.222 117.5,138.5 Z"/></g>
<g><path style="opacity:1" fill="#450644" d="M 71.5,165.5 C 71.1755,172.687 71.5088,179.687 72.5,186.5C 77.1138,185.45 81.7804,185.283 86.5,186C 90.1429,187.805 92.4763,190.638 93.5,194.5C 94.4822,201.991 92.1489,207.991 86.5,212.5C 82.8648,213.114 79.1981,213.448 75.5,213.5C 74.209,213.737 73.209,213.404 72.5,212.5C 69.3682,211.988 66.0349,211.988 62.5,212.5C 61.4599,210.281 61.9599,208.281 64,206.5C 64.4999,192.837 64.6666,179.171 64.5,165.5C 66.9103,164.562 69.2436,164.562 71.5,165.5 Z M 82.5,192.5 C 86.7491,197.668 86.4158,202.501 81.5,207C 79.4024,207.678 77.4024,207.511 75.5,206.5C 75.573,204.973 74.9063,203.973 73.5,203.5C 71.1618,195.185 74.1618,191.518 82.5,192.5 Z"/></g>
<g><path style="opacity:0.325" fill="#f6f2f5" d="M 351.5,166.5 C 352.117,166.611 352.617,166.944 353,167.5C 353.265,183.184 353.765,198.85 354.5,214.5C 352.801,214.62 351.135,214.954 349.5,215.5C 347.962,215.547 346.962,214.88 346.5,213.5C 348.5,213.5 350.5,213.5 352.5,213.5C 351.598,197.855 351.265,182.188 351.5,166.5 Z"/></g>
<g><path style="opacity:0.999" fill="#440544" d="M 21.5,174.5 C 21.0959,182.188 20.4292,189.855 19.5,197.5C 19.6667,200.167 19.8333,202.833 20,205.5C 20.3826,206.056 20.8826,206.389 21.5,206.5C 22.5832,206.539 23.5832,206.873 24.5,207.5C 29.0658,206.184 33.7325,205.517 38.5,205.5C 40.3354,208.492 39.6688,210.658 36.5,212C 30.2584,213.37 23.9251,213.87 17.5,213.5C 15.4184,213.376 13.9184,212.376 13,210.5C 12.3333,201.5 12.3333,192.5 13,183.5C 12.729,177.291 15.5623,174.291 21.5,174.5 Z"/></g>
<g><path style="opacity:0.281" fill="#e8e1e8" d="M 21.5,174.5 C 22.1174,174.611 22.6174,174.944 23,175.5C 23.1667,176.833 23.3333,178.167 23.5,179.5C 21.1715,188.438 20.5048,197.438 21.5,206.5C 20.8826,206.389 20.3826,206.056 20,205.5C 19.8333,202.833 19.6667,200.167 19.5,197.5C 20.4292,189.855 21.0959,182.188 21.5,174.5 Z"/></g>
<g><path style="opacity:0.995" fill="#450b45" d="M 55.5,176.5 C 56.0002,182.329 53.3335,184.663 47.5,183.5C 44.1452,178.756 45.4785,175.756 51.5,174.5C 53.1705,174.668 54.5039,175.335 55.5,176.5 Z"/></g>
<g><path style="opacity:1" fill="#c8b6c8" d="M 71.5,165.5 C 73.0886,172.349 73.4219,179.349 72.5,186.5C 71.5088,179.687 71.1755,172.687 71.5,165.5 Z"/></g>
<g><path style="opacity:0.419" fill="#e6dde5" d="M 55.5,176.5 C 56.6291,178.628 56.7958,180.961 56,183.5C 54.4815,184.163 53.3149,185.163 52.5,186.5C 51.609,185.89 50.609,185.557 49.5,185.5C 48.8333,184.833 48.1667,184.167 47.5,183.5C 53.3335,184.663 56.0002,182.329 55.5,176.5 Z"/></g>
<g><path style="opacity:0.966" fill="#450745" d="M 160.5,192.5 C 162.32,198.66 161.653,204.494 158.5,210C 152.237,213.567 145.57,214.4 138.5,212.5C 133.645,210.143 131.312,206.143 131.5,200.5C 133.48,187.061 141.147,182.228 154.5,186C 157.409,187.406 159.409,189.572 160.5,192.5 Z M 149.5,191.5 C 154.06,195.342 155.226,200.008 153,205.5C 149.097,209.283 145.264,209.283 141.5,205.5C 140,200.502 141.167,196.168 145,192.5C 146.44,191.852 147.94,191.519 149.5,191.5 Z"/></g>
<g><path style="opacity:0.448" fill="#f9f7f9" d="M 53.5,186.5 C 55.1125,188.428 56.1125,190.762 56.5,193.5C 55.7082,199.449 55.2082,205.449 55,211.5C 53.475,214.5 51.3084,215.167 48.5,213.5C 50.9928,213.671 52.8261,212.671 54,210.5C 54.7698,202.452 54.6032,194.452 53.5,186.5 Z"/></g>
<g><path style="opacity:0.999" fill="#440743" d="M 351.5,166.5 C 351.265,182.188 351.598,197.855 352.5,213.5C 350.5,213.5 348.5,213.5 346.5,213.5C 345.833,213.5 345.5,213.167 345.5,212.5C 345.265,211.903 344.765,211.57 344,211.5C 341.551,212.641 339.051,213.641 336.5,214.5C 334.547,213.844 332.547,213.511 330.5,213.5C 326.583,212.752 324.083,210.418 323,206.5C 319.957,197.627 322.457,190.793 330.5,186C 334.821,185.501 339.154,185.334 343.5,185.5C 343.334,180.156 343.501,174.823 344,169.5C 344.374,168.584 344.874,167.75 345.5,167C 347.473,166.505 349.473,166.338 351.5,166.5 Z M 341.5,192.5 C 343.975,196.656 344.141,200.989 342,205.5C 338.856,209.351 335.689,209.351 332.5,205.5C 330.844,200.938 331.51,196.771 334.5,193C 336.81,192.503 339.143,192.337 341.5,192.5 Z"/></g>
<g><path style="opacity:0.996" fill="#430644" d="M 295.5,185.5 C 295.856,187.19 296.856,188.19 298.5,188.5C 299.922,188.25 300.922,187.417 301.5,186C 305.255,185.245 308.922,185.411 312.5,186.5C 313.845,188.697 315.011,191.03 316,193.5C 316.667,199.5 316.667,205.5 316,211.5C 314.246,213.25 312.079,213.917 309.5,213.5C 308.672,207.347 308.172,201.013 308,194.5C 307.722,193.584 307.222,192.918 306.5,192.5C 304.511,191.113 302.678,191.447 301,193.5C 299.848,199.77 299.182,206.103 299,212.5C 297.301,213.406 295.467,213.739 293.5,213.5C 292.883,213.389 292.383,213.056 292,212.5C 291.667,205.5 291.333,198.5 291,191.5C 289.006,187.295 290.506,185.295 295.5,185.5 Z"/></g>
<g><path style="opacity:0.008" fill="#e1d3e0" d="M 295.5,185.5 C 297.144,185.81 298.144,186.81 298.5,188.5C 296.856,188.19 295.856,187.19 295.5,185.5 Z"/></g>
<g><path style="opacity:0.997" fill="#480c48" d="M 251.5,195.5 C 250.673,200.651 250.173,205.984 250,211.5C 248.599,213.192 246.766,213.859 244.5,213.5C 243.883,213.389 243.383,213.056 243,212.5C 242.667,206.167 242.333,199.833 242,193.5C 241.617,192.944 241.117,192.611 240.5,192.5C 239.09,191.172 237.924,191.505 237,193.5C 236.667,199.5 236.333,205.5 236,211.5C 234.599,213.192 232.766,213.859 230.5,213.5C 229.042,206.716 227.709,199.716 226.5,192.5C 225.749,191.427 224.749,191.26 223.5,192C 222.54,193.419 221.707,194.919 221,196.5C 220.667,201.833 220.333,207.167 220,212.5C 218.301,213.406 216.467,213.739 214.5,213.5C 214.058,205.442 213.058,197.442 211.5,189.5C 214.173,185.65 217.006,185.65 220,189.5C 222.566,185.591 226.066,184.591 230.5,186.5C 231.281,187.737 232.281,188.737 233.5,189.5C 236.633,185.76 240.633,184.593 245.5,186C 248.933,188.266 250.933,191.432 251.5,195.5 Z"/></g>
<g><path style="opacity:0.99" fill="#440948" d="M 281.5,188.5 C 282.072,190.255 282.906,191.922 284,193.5C 284.814,195.902 284.647,198.235 283.5,200.5C 276.525,201.133 269.525,201.8 262.5,202.5C 262.855,203.522 263.522,204.189 264.5,204.5C 266.354,206.596 268.687,207.929 271.5,208.5C 274.645,206.687 277.978,205.354 281.5,204.5C 283.113,207.547 282.446,210.047 279.5,212C 274.695,214.62 269.695,215.12 264.5,213.5C 261.293,212.468 258.793,210.468 257,207.5C 253.999,190.836 260.832,183.669 277.5,186C 279.32,186.2 280.653,187.034 281.5,188.5 Z M 275.5,192.5 C 277.319,193.936 277.652,195.603 276.5,197.5C 272.571,196.567 268.571,196.234 264.5,196.5C 267.051,192.056 270.718,190.723 275.5,192.5 Z"/></g>
<g><path style="opacity:1" fill="#4f154b" d="M 49.5,185.5 C 50.609,185.557 51.609,185.89 52.5,186.5C 52.8333,186.5 53.1667,186.5 53.5,186.5C 54.6032,194.452 54.7698,202.452 54,210.5C 52.8261,212.671 50.9928,213.671 48.5,213.5C 47.5041,213.586 46.6708,213.252 46,212.5C 45.1695,204.112 45.5028,195.779 47,187.5C 47.7083,186.619 48.5416,185.953 49.5,185.5 Z"/></g>
<g><path style="opacity:0.592" fill="#f7f3f7" d="M 240.5,192.5 C 238.933,193.681 238.099,195.347 238,197.5C 238.208,202.699 237.875,208.032 237,213.5C 234.726,214.811 232.56,214.811 230.5,213.5C 232.766,213.859 234.599,213.192 236,211.5C 236.333,205.5 236.667,199.5 237,193.5C 237.924,191.505 239.09,191.172 240.5,192.5 Z"/></g>
<g><path style="opacity:0.312" fill="#e7dce7" d="M 306.5,192.5 C 304.983,192.511 303.816,193.177 303,194.5C 301.977,200.793 301.311,207.126 301,213.5C 298.395,214.814 295.895,214.814 293.5,213.5C 295.467,213.739 297.301,213.406 299,212.5C 299.182,206.103 299.848,199.77 301,193.5C 302.678,191.447 304.511,191.113 306.5,192.5 Z"/></g>
<g><path style="opacity:0.41" fill="#ece7ed" d="M 116.5,192.5 C 111.039,192.29 108.039,194.957 107.5,200.5C 108.309,202.071 108.643,203.738 108.5,205.5C 106.036,201.722 105.87,197.722 108,193.5C 110.698,191.327 113.531,190.994 116.5,192.5 Z"/></g>
<g><path style="opacity:0.393" fill="#eee7ee" d="M 149.5,191.5 C 147.94,191.519 146.44,191.852 145,192.5C 141.167,196.168 140,200.502 141.5,205.5C 139.131,201.69 138.964,197.69 141,193.5C 143.511,190.701 146.345,190.035 149.5,191.5 Z"/></g>
<g><path style="opacity:0.375" fill="#e3dae4" d="M 275.5,192.5 C 270.718,190.723 267.051,192.056 264.5,196.5C 263.253,193.825 264.253,191.991 267.5,191C 270.538,190.115 273.205,190.615 275.5,192.5 Z"/></g>
<g><path style="opacity:0.381" fill="#f9f6f9" d="M 312.5,186.5 C 315.502,188.292 317.335,190.959 318,194.5C 318.667,200.5 318.667,206.5 318,212.5C 315.302,214.673 312.469,215.006 309.5,213.5C 312.079,213.917 314.246,213.25 316,211.5C 316.667,205.5 316.667,199.5 316,193.5C 315.011,191.03 313.845,188.697 312.5,186.5 Z"/></g>
<g><path style="opacity:0.215" fill="#efeaee" d="M 341.5,192.5 C 339.143,192.337 336.81,192.503 334.5,193C 331.51,196.771 330.844,200.938 332.5,205.5C 329.167,201.99 328.667,197.99 331,193.5C 332.648,191.972 334.648,191.305 337,191.5C 338.707,191.508 340.207,191.842 341.5,192.5 Z"/></g>
<g><path style="opacity:0.284" fill="#f9f6f9" d="M 196.5,192.5 C 195.504,192.414 194.671,192.748 194,193.5C 193.667,199.833 193.333,206.167 193,212.5C 190.643,214.646 188.143,214.979 185.5,213.5C 187.467,213.739 189.301,213.406 191,212.5C 191.333,206.167 191.667,199.833 192,193.5C 193.347,191.534 194.847,191.201 196.5,192.5 Z"/></g>
<g><path style="opacity:0.469" fill="#e8deea" d="M 125.5,190.5 C 126.993,191.312 127.66,192.645 127.5,194.5C 127.493,197.169 126.159,198.502 123.5,198.5C 121.962,198.547 120.962,197.88 120.5,196.5C 125.908,197.433 127.575,195.433 125.5,190.5 Z"/></g>
<g><path style="opacity:0.632" fill="#f9f8fa" d="M 82.5,192.5 C 74.1618,191.518 71.1618,195.185 73.5,203.5C 69.8096,193.874 72.8096,190.207 82.5,192.5 Z"/></g>
<g><path style="opacity:0.472" fill="#fdfdfd" d="M 251.5,195.5 C 252.946,201.536 252.78,207.536 251,213.5C 248.726,214.811 246.56,214.811 244.5,213.5C 246.766,213.859 248.599,213.192 250,211.5C 250.173,205.984 250.673,200.651 251.5,195.5 Z"/></g>
<g><path style="opacity:0.998" fill="#4a0e4a" d="M 125.5,190.5 C 127.575,195.433 125.908,197.433 120.5,196.5C 119.5,194.833 118.167,193.5 116.5,192.5C 113.531,190.994 110.698,191.327 108,193.5C 105.87,197.722 106.036,201.722 108.5,205.5C 111.259,207.293 114.259,207.793 117.5,207C 119.167,204.667 120.833,202.333 122.5,200C 123.333,199.833 124.167,199.667 125,199.5C 126.376,199.684 127.209,200.351 127.5,201.5C 127.822,205.35 126.489,208.517 123.5,211C 118.742,213.144 113.742,213.977 108.5,213.5C 103.263,212.765 100.096,209.765 99,204.5C 98.3947,189.444 105.561,183.277 120.5,186C 122.66,186.996 124.327,188.496 125.5,190.5 Z"/></g>
<g><path style="opacity:0.573" fill="#f9f7f9" d="M 182.5,193.5 C 179.95,193.561 178.45,194.894 178,197.5C 177.786,202.885 177.286,208.219 176.5,213.5C 174.027,214.797 171.693,214.797 169.5,213.5C 172.079,213.917 174.246,213.25 176,211.5C 176.293,205.133 176.793,198.8 177.5,192.5C 179.415,192.216 181.081,192.549 182.5,193.5 Z"/></g>
<g><path style="opacity:0.88" fill="#e9e0e8" d="M 204.5,190.5 C 205.222,190.918 205.722,191.584 206,192.5C 206.5,199.826 206.666,207.159 206.5,214.5C 203.941,214.802 201.607,214.468 199.5,213.5C 201.467,213.739 203.301,213.406 205,212.5C 205.683,205.139 205.517,197.805 204.5,190.5 Z"/></g>
<g><path style="opacity:0.988" fill="#dacdd9" d="M 281.5,188.5 C 286.53,192.2 287.53,196.7 284.5,202C 279.393,203.795 274.226,203.962 269,202.5C 267.014,202.569 265.514,203.235 264.5,204.5C 263.522,204.189 262.855,203.522 262.5,202.5C 269.525,201.8 276.525,201.133 283.5,200.5C 284.647,198.235 284.814,195.902 284,193.5C 282.906,191.922 282.072,190.255 281.5,188.5 Z"/></g>
<g><path style="opacity:0.999" fill="#450945" d="M 204.5,190.5 C 205.517,197.805 205.683,205.139 205,212.5C 203.301,213.406 201.467,213.739 199.5,213.5C 199.004,206.511 198.004,199.511 196.5,192.5C 194.847,191.201 193.347,191.534 192,193.5C 191.667,199.833 191.333,206.167 191,212.5C 189.301,213.406 187.467,213.739 185.5,213.5C 184.732,212.737 184.232,211.737 184,210.5C 183.788,204.752 183.288,199.085 182.5,193.5C 181.081,192.549 179.415,192.216 177.5,192.5C 176.793,198.8 176.293,205.133 176,211.5C 174.246,213.25 172.079,213.917 169.5,213.5C 168.671,206.345 168.171,199.011 168,191.5C 166.049,189.863 166.216,188.363 168.5,187C 171.379,185.338 173.545,186.171 175,189.5C 179.044,184.527 183.544,184.193 188.5,188.5C 192.05,185.72 196.05,184.886 200.5,186C 202.635,186.876 203.969,188.376 204.5,190.5 Z"/></g>
<g><path style="opacity:0.878" fill="#e0d3dd" d="M 226.5,192.5 C 224.827,193.343 223.66,194.676 223,196.5C 221.769,201.383 221.603,206.216 222.5,211C 220.605,214.478 217.938,215.311 214.5,213.5C 216.467,213.739 218.301,213.406 220,212.5C 220.333,207.167 220.667,201.833 221,196.5C 221.707,194.919 222.54,193.419 223.5,192C 224.749,191.26 225.749,191.427 226.5,192.5 Z"/></g>
<g><path style="opacity:0.533" fill="#e9e2e9" d="M 73.5,203.5 C 74.9063,203.973 75.573,204.973 75.5,206.5C 74.0937,206.027 73.427,205.027 73.5,203.5 Z"/></g>
<g><path style="opacity:0.516" fill="#efe9ee" d="M 93.5,194.5 C 95.6984,201.093 94.3651,206.926 89.5,212C 88.552,212.483 87.552,212.649 86.5,212.5C 92.1489,207.991 94.4822,201.991 93.5,194.5 Z"/></g>
<g><path style="opacity:0.612" fill="#eee8ed" d="M 38.5,205.5 C 40.4411,207.011 40.9411,209.011 40,211.5C 35.6876,213.937 31.0209,214.937 26,214.5C 22.9792,214.498 20.1459,214.164 17.5,213.5C 23.9251,213.87 30.2584,213.37 36.5,212C 39.6688,210.658 40.3354,208.492 38.5,205.5 Z"/></g>
<g><path style="opacity:0.453" fill="#e9e0e8" d="M 160.5,192.5 C 161.79,193.058 162.623,194.058 163,195.5C 164.91,207.703 159.743,214.036 147.5,214.5C 144.186,214.657 141.186,213.991 138.5,212.5C 145.57,214.4 152.237,213.567 158.5,210C 161.653,204.494 162.32,198.66 160.5,192.5 Z"/></g>
<g><path style="opacity:0.428" fill="#ece6eb" d="M 345.5,212.5 C 342.956,214.182 340.123,215.182 337,215.5C 334.516,215.503 332.349,214.837 330.5,213.5C 332.547,213.511 334.547,213.844 336.5,214.5C 339.051,213.641 341.551,212.641 344,211.5C 344.765,211.57 345.265,211.903 345.5,212.5 Z"/></g>
<g><path style="opacity:0.061" fill="#ece3eb" d="M 72.5,212.5 C 70.2133,212.724 68.0466,213.391 66,214.5C 64.5405,214.192 63.3739,213.525 62.5,212.5C 66.0349,211.988 69.3682,211.988 72.5,212.5 Z"/></g>
<g><path style="opacity:0.597" fill="#f7f5f8" d="M 86.5,212.5 C 84.7103,213.997 82.5437,214.664 80,214.5C 78.2933,214.492 76.7933,214.158 75.5,213.5C 79.1981,213.448 82.8648,213.114 86.5,212.5 Z"/></g>
<g><path style="opacity:0.629" fill="#f9f6f9" d="M 127.5,201.5 C 129.347,208.212 126.68,212.379 119.5,214C 115.642,214.81 111.976,214.643 108.5,213.5C 113.742,213.977 118.742,213.144 123.5,211C 126.489,208.517 127.822,205.35 127.5,201.5 Z"/></g>
<g><path style="opacity:0.427" fill="#e7e0e8" d="M 281.5,204.5 C 286.477,206.152 286.81,208.652 282.5,212C 276.623,215.872 270.623,216.372 264.5,213.5C 269.695,215.12 274.695,214.62 279.5,212C 282.446,210.047 283.113,207.547 281.5,204.5 Z"/></g>
</svg>
