<svg width="80" height="80" viewBox="0 0 80 80" fill="none" xmlns="http://www.w3.org/2000/svg">
<circle cx="40" cy="40" r="40" fill="#D9D9D9"/>
<path d="M24.0568 45V36.2727H25.1136V44.0625H29.1705V45H24.0568ZM37.8306 40.6364C37.8306 41.5568 37.6644 42.3523 37.332 43.0227C36.9996 43.6932 36.5437 44.2102 35.9641 44.5739C35.3846 44.9375 34.7227 45.1193 33.9783 45.1193C33.234 45.1193 32.5721 44.9375 31.9925 44.5739C31.413 44.2102 30.957 43.6932 30.6246 43.0227C30.2923 42.3523 30.1261 41.5568 30.1261 40.6364C30.1261 39.7159 30.2923 38.9205 30.6246 38.25C30.957 37.5795 31.413 37.0625 31.9925 36.6989C32.5721 36.3352 33.234 36.1534 33.9783 36.1534C34.7227 36.1534 35.3846 36.3352 35.9641 36.6989C36.5437 37.0625 36.9996 37.5795 37.332 38.25C37.6644 38.9205 37.8306 39.7159 37.8306 40.6364ZM36.8079 40.6364C36.8079 39.8807 36.6815 39.2429 36.4286 38.723C36.1786 38.2031 35.8391 37.8097 35.4102 37.5426C34.984 37.2756 34.5067 37.142 33.9783 37.142C33.4499 37.142 32.9712 37.2756 32.5423 37.5426C32.1161 37.8097 31.7766 38.2031 31.5238 38.723C31.2738 39.2429 31.1488 39.8807 31.1488 40.6364C31.1488 41.392 31.2738 42.0298 31.5238 42.5497C31.7766 43.0696 32.1161 43.4631 32.5423 43.7301C32.9712 43.9972 33.4499 44.1307 33.9783 44.1307C34.5067 44.1307 34.984 43.9972 35.4102 43.7301C35.8391 43.4631 36.1786 43.0696 36.4286 42.5497C36.6815 42.0298 36.8079 41.392 36.8079 40.6364ZM45.5735 39C45.4798 38.7131 45.3562 38.456 45.2028 38.2287C45.0522 37.9986 44.8718 37.8026 44.6616 37.6406C44.4542 37.4787 44.2184 37.3551 43.9542 37.2699C43.69 37.1847 43.4002 37.142 43.0849 37.142C42.5678 37.142 42.0977 37.2756 41.6744 37.5426C41.2511 37.8097 40.9144 38.2031 40.6644 38.723C40.4144 39.2429 40.2894 39.8807 40.2894 40.6364C40.2894 41.392 40.4158 42.0298 40.6687 42.5497C40.9215 43.0696 41.2638 43.4631 41.6957 43.7301C42.1275 43.9972 42.6133 44.1307 43.1531 44.1307C43.6531 44.1307 44.0934 44.0241 44.4741 43.8111C44.8576 43.5952 45.1559 43.2912 45.369 42.8991C45.5849 42.5043 45.6928 42.0398 45.6928 41.5057L46.0167 41.5739H43.3917V40.6364H46.7156V41.5739C46.7156 42.2926 46.5621 42.9176 46.2553 43.4489C45.9513 43.9801 45.5309 44.392 44.994 44.6847C44.4599 44.9744 43.8462 45.1193 43.1531 45.1193C42.3803 45.1193 41.7013 44.9375 41.1161 44.5739C40.5337 44.2102 40.0792 43.6932 39.7525 43.0227C39.4286 42.3523 39.2667 41.5568 39.2667 40.6364C39.2667 39.946 39.359 39.3253 39.5437 38.7741C39.7312 38.2202 39.9954 37.7486 40.3363 37.3594C40.6772 36.9702 41.0806 36.6719 41.5465 36.4645C42.0124 36.2571 42.5252 36.1534 43.0849 36.1534C43.5451 36.1534 43.9741 36.223 44.3718 36.3622C44.7724 36.4986 45.1289 36.6932 45.4414 36.946C45.7567 37.196 46.0195 37.4957 46.2298 37.8452C46.44 38.1918 46.5849 38.5767 46.6644 39H45.5735ZM55.8892 40.6364C55.8892 41.5568 55.723 42.3523 55.3906 43.0227C55.0582 43.6932 54.6023 44.2102 54.0227 44.5739C53.4432 44.9375 52.7813 45.1193 52.0369 45.1193C51.2926 45.1193 50.6307 44.9375 50.0511 44.5739C49.4716 44.2102 49.0156 43.6932 48.6832 43.0227C48.3509 42.3523 48.1847 41.5568 48.1847 40.6364C48.1847 39.7159 48.3509 38.9205 48.6832 38.25C49.0156 37.5795 49.4716 37.0625 50.0511 36.6989C50.6307 36.3352 51.2926 36.1534 52.0369 36.1534C52.7813 36.1534 53.4432 36.3352 54.0227 36.6989C54.6023 37.0625 55.0582 37.5795 55.3906 38.25C55.723 38.9205 55.8892 39.7159 55.8892 40.6364ZM54.8665 40.6364C54.8665 39.8807 54.7401 39.2429 54.4872 38.723C54.2372 38.2031 53.8977 37.8097 53.4688 37.5426C53.0426 37.2756 52.5653 37.142 52.0369 37.142C51.5085 37.142 51.0298 37.2756 50.6009 37.5426C50.1747 37.8097 49.8352 38.2031 49.5824 38.723C49.3324 39.2429 49.2074 39.8807 49.2074 40.6364C49.2074 41.392 49.3324 42.0298 49.5824 42.5497C49.8352 43.0696 50.1747 43.4631 50.6009 43.7301C51.0298 43.9972 51.5085 44.1307 52.0369 44.1307C52.5653 44.1307 53.0426 43.9972 53.4688 43.7301C53.8977 43.4631 54.2372 43.0696 54.4872 42.5497C54.7401 42.0298 54.8665 41.392 54.8665 40.6364Z" fill="black"/>
</svg>
